Coordinates
version=1
nRows=29
nColumns=24
inDegrees=yes

Units are S.I. units (second, meters, Newtons, ...)
Angles are in degrees.

endheader
time	pelvis_tilt	pelvis_list	pelvis_rotation	pelvis_tx	pelvis_ty	pelvis_tz	hip_flexion_r	hip_adduction_r	hip_rotation_r	knee_angle_r	ankle_angle_r	subtalar_angle_r	mtp_angle_r	hip_flexion_l	hip_adduction_l	hip_rotation_l	knee_angle_l	ankle_angle_l	subtalar_angle_l	mtp_angle_l	lumbar_extension	lumbar_bending	lumbar_rotation
      1.56250000	      2.97272922	      3.99726242	     -2.61227888	      0.44682323	      1.07563748	      0.28710371	      7.31027920	     -7.07450907	     -1.74283126	    -56.26601971	     -1.59855698	    -14.92914797	     18.30513986	      0.82612398	     10.30951544	     -3.14366054	     -1.44039632	     -4.94209957	     -8.75290584	      6.73867888	      1.24013533	     -2.16311559	      1.22369011
      1.56666667	      3.00779642	      4.12937041	     -2.53860261	      0.45176794	      1.07594805	      0.28691582	      7.85103091	     -7.17427047	     -1.56984435	    -56.13390936	     -1.30726160	    -14.94832090	     18.22341037	      0.38507177	     10.47766056	     -3.03422175	     -1.24029566	     -4.89125343	     -8.65167649	      6.70661815	      1.16663646	     -2.22577434	      1.18313361
      1.57083333	      3.04211768	      4.24738946	     -2.44195769	      0.45670562	      1.07626248	      0.28683336	      8.37982353	     -7.24173620	     -1.43252885	    -56.00162700	     -0.45390969	    -14.77720484	     17.99499270	     -0.04212042	     10.61446236	     -3.04190395	     -1.05673173	     -4.69539211	     -8.52491434	      6.60831233	      1.08611980	     -2.47522012	      1.08026623
      1.57500000	      3.05769380	      4.36991402	     -2.38322454	      0.46168603	      1.07653656	      0.28671587	      8.92864386	     -7.31666392	     -1.23744844	    -55.79325681	     -0.24982696	    -14.69048560	     17.92291020	     -0.47993478	     10.75817082	     -2.90888330	     -0.81883452	     -4.66192128	     -8.38330781	      6.57801898	      1.01073351	     -2.52260968	      1.02748950
      1.57916667	      3.07496220	      4.47645324	     -2.27953131	      0.46666367	      1.07681840	      0.28667927	      9.45092379	     -7.36134839	     -1.08142698	    -55.57886330	      0.64563711	    -14.15918505	     17.60903824	     -0.89573339	     10.87164756	     -2.96061384	     -0.63942614	     -4.43104171	     -8.13713087	      6.43148037	      0.92794090	     -2.76639838	      0.83915623
      1.58333333	      3.11282912	      4.60729931	     -2.21058274	      0.47161180	      1.07709090	      0.28658137	      9.96216736	     -7.44067725	     -0.90262523	    -55.31958371	      1.08513603	    -13.86119722	     17.35363083	     -1.35229973	     11.02022243	     -2.89747005	     -0.41057143	     -4.31161763	     -7.90566900	      6.30986409	      0.87869544	     -2.98795584	      0.72271583
      1.58750000	      3.09065358	      4.72164462	     -2.08487018	      0.47658701	      1.07729637	      0.28660565	     10.51227619	     -7.48145800	     -0.77864693	    -55.02830901	      1.49637316	    -13.66451670	      8.41907927	     -1.70189953	     11.12957959	     -3.13488227	     -0.30154232	     -3.75662746	     -6.79279183	      1.85629984	      0.96421102	     -3.22589473	     -0.60698740
      1.59166667	      3.12341109	      4.87062347	     -2.00493199	      0.48145280	      1.07750146	      0.28639790	     11.02473926	     -7.59225836	     -0.61770160	    -54.72943878	      2.15026043	    -13.06627942	      8.27297858	     -2.16492715	     11.30305226	     -2.89941495	     -0.03928178	     -3.83473157	     -7.12547262	      1.77773659	      0.79050444	     -3.40858858	      0.00281414
      1.59583333	      3.13606319	      4.99340502	     -1.94906139	      0.48640057	      1.07768765	      0.28628973	     11.54642185	     -7.65588747	     -0.43653912	    -54.35383778	      2.26851511	    -13.01190562	      8.24401966	     -2.60715778	     11.44119170	     -2.79235700	      0.21597782	     -3.81918376	     -7.04543569	      1.76481660	      0.73874868	     -3.41519611	      0.02156931
      1.60000000	      3.15421066	      5.13304910	     -1.89048093	      0.49133467	      1.07784795	      0.28622223	     12.05596563	     -7.73361804	     -0.25632850	    -53.98382461	      2.85794469	    -12.56365527	      8.12427269	     -3.04289176	     11.59427027	     -2.77519166	      0.43891190	     -3.67390368	     -6.92156894	      1.69806777	      0.65956784	     -3.62482381	      0.09576193
      1.60416667	      3.15625227	      5.25643761	     -1.82955035	      0.49630207	      1.07798621	      0.28616584	     12.56761321	     -7.78823528	     -0.08508255	    -53.53741944	      2.98508739	    -12.48857473	      8.09730898	     -3.47776908	     11.72443279	     -2.66850262	      0.69500725	     -3.64856717	     -6.80391828	      1.68403330	      0.61110064	     -3.69629622	      0.08695119
      1.60833333	      3.15611029	      5.37791480	     -1.77045657	      0.50125590	      1.07809300	      0.28612430	     13.07502350	     -7.83708208	      0.08804698	    -53.06886145	      3.20699724	    -12.35601528	      8.06916615	     -3.90861508	     11.85118293	     -2.57513365	      0.94654641	     -3.58300439	     -6.67609515	      1.66749292	      0.56738301	     -3.84525629	      0.07480894
      1.61250000	      3.16070616	      5.50623339	     -1.71771723	      0.50618366	      1.07817748	      0.28608280	     13.57355421	     -7.89212243	      0.26265781	    -52.57739165	      3.48807904	    -12.15478413	      8.03772228	     -4.33963434	     11.98692480	     -2.49653665	      1.19127594	     -3.48827226	     -6.52990742	      1.64652646	      0.52362919	     -4.01600241	      0.04747486
      1.61666667	      3.15180071	      5.65285250	     -1.62858542	      0.51106751	      1.07820047	      0.28594051	     14.07777213	     -7.98356408	      0.38445590	    -52.09311453	      4.12017850	    -11.44358962	      7.91907457	     -4.72680190	     12.15122988	     -2.57365642	      1.37433486	     -3.24430372	     -6.23216316	      1.55381718	      0.48537856	     -4.22129321	     -0.10107418
      1.62083333	      3.13842230	      5.76171555	     -1.57018729	      0.51604714	      1.07822461	      0.28591006	     14.56735577	     -8.01233719	      0.53667567	    -51.51590513	      4.20094225	    -11.39786570	      7.89456022	     -5.14585887	     12.26213663	     -2.48519838	      1.62775221	     -3.21986747	     -6.12206866	      1.53635572	      0.44956271	     -4.30108505	     -0.12547388
      1.62500000	      3.15356649	      5.90692503	     -1.52588339	      0.52093880	      1.07822895	      0.28580585	     15.03807502	     -8.09201574	      0.68617546	    -50.94872844	      4.40048688	    -11.21614994	      7.84326402	     -5.58627238	     12.42578991	     -2.40026715	      1.87243824	     -3.11641845	     -5.95913527	      1.49367816	      0.45242955	     -4.48474158	     -0.18031682
      1.62916667	      3.11825036	      5.99975327	     -1.44989411	      0.52591763	      1.07818987	      0.28581915	     15.52159353	     -8.09553495	      0.82114342	    -50.30038204	      4.52237427	    -11.12553856	      7.81963784	     -5.97079123	     12.51126667	     -2.34810943	      2.09637205	     -3.05785292	     -5.86768146	      1.47316817	      0.38840278	     -4.58767534	     -0.21361025
      1.63333333	      3.10595287	      6.12772542	     -1.37720890	      0.53083523	      1.07811705	      0.28570124	     15.98610263	     -8.15843528	      0.93265642	    -49.66968096	      4.87349924	    -10.66761411	      7.71018051	     -6.37011033	     12.65223276	     -2.32134027	      2.30229192	     -2.82299779	     -5.62257120	      1.36365040	      0.38752832	     -4.79706830	     -0.38358869
      1.63750000	      3.07780282	      6.23487418	     -1.32497731	      0.53579462	      1.07801137	      0.28568330	     16.45490093	     -8.18023438	      1.06606878	    -48.98006000	      4.93479600	    -10.64504158	      7.68962917	     -6.76287055	     12.76298986	     -2.24971417	      2.53607616	     -2.80367167	     -5.53881063	      1.34425689	      0.34766415	     -4.86923743	     -0.40736828
      1.64166667	      3.07801775	      6.35790001	     -1.28702497	      0.54072162	      1.07789495	      0.28561285	     16.89412956	     -8.22631314	      1.18868329	    -48.28042171	      5.02187031	    -10.55380161	      7.65232164	     -7.18703113	     12.89943491	     -2.15193616	      2.77839397	     -2.72443608	     -5.42685133	      1.30500470	      0.36100461	     -5.01273864	     -0.45033581
      1.64583333	      3.05432297	      6.46162280	     -1.23268577	      0.54568517	      1.07773908	      0.28556754	     17.33336970	     -8.24697350	      1.30123648	    -47.53899892	      5.10990337	    -10.44464490	      7.61164464	     -7.58161321	     13.00882171	     -2.06884490	      2.99830202	     -2.62300078	     -5.32429122	      1.25900815	      0.35110157	     -5.13913988	     -0.50831487
      1.65000000	      3.01019462	      6.55710765	     -1.16331431	      0.55062901	      1.07753767	      0.28554876	     17.77807297	     -8.25605550	      1.40244536	    -46.75978794	      5.17301361	    -10.39512929	      7.59226984	     -7.94105994	     13.10169758	     -2.01921511	      3.19075021	     -2.56429906	     -5.26337847	      1.23689926	      0.30438685	     -5.23636611	     -0.53559185
      1.65416667	      2.97049707	      6.65674977	     -1.11565582	      0.55562447	      1.07729569	      0.28546098	     18.21785313	     -8.27744151	      1.46242965	    -45.97699150	      5.22471433	    -10.35813933	      7.57991061	     -8.31202859	     13.21433447	     -1.97613082	      3.41269928	     -2.50765165	     -5.20837553	      1.22310565	      0.26968180	     -5.33422043	     -0.55229103
      1.65833333	      2.93542920	      6.75106840	     -1.06920724	      0.56061286	      1.07704523	      0.28544581	     18.63056194	     -8.28357205	      1.56903980	    -45.15039551	      5.26635377	    -10.30575309	      7.56572441	     -8.68842737	     13.30993391	     -1.88896805	      3.61588947	     -2.43325891	     -5.13969238	      1.20664358	      0.26328871	     -5.45179610	     -0.57288794
      1.66250000	      2.89930614	      6.85170341	     -0.96180697	      0.56551606	      1.07677165	      0.28529133	     19.02572752	     -8.32537379	      1.59421593	    -44.29866404	      5.25987226	    -10.05360619	      7.47811072	     -9.04962911	     13.40963668	     -1.72876120	      3.76849060	     -2.12041771	     -4.97847699	      1.08494646	      0.33521378	     -5.58439319	     -0.77005356
      1.66666667	      2.85496484	      6.94463215	     -0.92694283	      0.57049416	      1.07643797	      0.28528311	     19.43267631	     -8.32819843	      1.67606110	    -43.43521912	      5.31256147	    -10.05091770	      7.46391900	     -9.40091568	     13.50771514	     -1.69047358	      3.95542407	     -2.09792207	     -4.92808205	      1.06624084	      0.29750893	     -5.68037778	     -0.78756294
      1.67083333	      2.81357793	      7.03452409	     -0.89407592	      0.57546185	      1.07608201	      0.28527946	     19.82483567	     -8.32766231	      1.74607064	    -42.54645117	      5.34019596	    -10.03415701	      7.45104866	     -9.75147512	     13.60306600	     -1.63970337	      4.13253079	     -2.04900710	     -4.88073562	      1.04966825	      0.28009396	     -5.78406355	     -0.80158786
      1.67500000	      2.77632133	      7.11657640	     -0.85766222	      0.58044361	      1.07571060	      0.28525527	     20.19374569	     -8.32277062	      1.80688001	    -41.62739455	      5.34047556	    -10.00506283	      7.43643614	    -10.10556758	     13.68894215	     -1.57315812	      4.30187752	     -1.97257863	     -4.83090297	      1.03069748	      0.28648137	     -5.88725818	     -0.81980855
      1.67916667	      2.76239779	      7.19688165	     -0.81669977	      0.58546805	      1.07534597	      0.28512620	     20.52181072	     -8.33439356	      1.80460227	    -40.68689990	      5.24617419	     -9.94062702	      7.40308863	    -10.49563763	     13.78199229	     -1.44819291	      4.48576770	     -1.79801892	     -4.74630465	      0.98385716	      0.37120448	     -5.97854667	     -0.88165545
